<svg width="327" height="325" viewBox="0 0 327 325" fill="none" xmlns="http://www.w3.org/2000/svg">
<path d="M13 175C13 92.1573 80.1573 25 163 25H313V175C313 257.843 245.843 325 163 325C80.1573 325 13 257.843 13 175Z" fill="#DA4167"/>
<path d="M168.077 229C154.61 229 143.21 226.267 133.877 220.8C124.543 215.2 118.41 206.867 115.477 195.8C114.277 191.267 113.477 185.733 113.077 179.2C112.677 172.667 112.477 164.333 112.477 154.2C112.477 134.333 114.61 118.533 118.877 106.8C123.277 94.9333 131.943 89 144.877 89C152.877 89 159.143 91.8 163.677 97.4C168.343 103 170.677 109.933 170.677 118.2C170.677 127 169.943 136.4 168.477 146.4C167.01 156.4 164.943 168.533 162.277 182.8C170.543 180.133 179.61 178.8 189.477 178.8C199.743 178.8 208.277 180.667 215.077 184.4C222.01 188.133 225.477 194.2 225.477 202.6C225.477 210.733 222.81 216.733 217.477 220.6C212.143 224.467 205.677 226.867 198.077 227.8C190.477 228.6 180.477 229 168.077 229Z" fill="#2D2D2D"/>
<path d="M157.077 239C143.61 239 132.21 236.267 122.877 230.8C113.543 225.2 107.41 216.867 104.477 205.8C103.277 201.267 102.477 195.733 102.077 189.2C101.677 182.667 101.477 174.333 101.477 164.2C101.477 144.333 103.61 128.533 107.877 116.8C112.277 104.933 120.943 99 133.877 99C141.877 99 148.143 101.8 152.677 107.4C157.343 113 159.677 119.933 159.677 128.2C159.677 137 158.943 146.4 157.477 156.4C156.01 166.4 153.943 178.533 151.277 192.8C159.543 190.133 168.61 188.8 178.477 188.8C188.743 188.8 197.277 190.667 204.077 194.4C211.01 198.133 214.477 204.2 214.477 212.6C214.477 220.733 211.81 226.733 206.477 230.6C201.143 234.467 194.677 236.867 187.077 237.8C179.477 238.6 169.477 239 157.077 239Z" fill="#FDF7F7"/>
</svg>
